<svg xmlns="http://www.w3.org/2000/svg" viewBox="0 0 512 512"><g fill="none" stroke="#ece5d8" stroke-width="16" stroke-linecap="round"><path d="M 28,230 L 28,94 A 66 66 0 0 1 94,28 L 418,28 A 66 66 0 0 1 484,94 L 484,230"/><path d="M 484,282 L 484,418 A 66 66 0 0 1 418,484 L 94,484 A 66 66 0 0 1 28,418 L 28,282"/></g><circle cx="160" cy="160" r="24" fill="#ece5d8"/><circle cx="160" cy="256" r="15" fill="none" stroke="#ece5d8" stroke-width="8"/><circle cx="160" cy="352" r="24" fill="#ece5d8"/><circle cx="256" cy="160" r="15" fill="none" stroke="#ece5d8" stroke-width="8"/><circle cx="256" cy="352" r="15" fill="none" stroke="#ece5d8" stroke-width="8"/><circle cx="352" cy="160" r="24" fill="#ece5d8"/><circle cx="352" cy="256" r="15" fill="none" stroke="#ece5d8" stroke-width="8"/><circle cx="352" cy="352" r="24" fill="#ece5d8"/><path d="M 352,160 C 320,94 168,90 160,160 C 150,208 205,232 256,256 C 307,280 362,304 352,352 C 344,418 192,424 160,352" fill="none" stroke="#ece5d8" stroke-width="26" stroke-linecap="round"/></svg>